<?xml version="1.0" encoding="UTF-8" standalone="no"?>
<!--    viewBox="0 0 200 200"
-->
<svg xmlns="http://www.w3.org/2000/svg" width="150" 
   height="150" fill="currentColor" class="bi bi-list"  version="1.1"
   id="svg1" viewBox="0 0 16 16"> 
  <path
     id="outerzp"
     fill="white"
     d="m 51.942112,0.02025002 c 0,0 7.32801,0 7.32801,0 0,0 3.506694,0.27098508 3.506694,0.27098508 5.526037,0.60677088 10.983425,2.0618434 16.091867,4.3239805 7.024819,3.1104389 13.723568,7.6759514 18.952141,13.4667874 3.672586,4.070668 7.019096,8.960183 9.370246,13.9793 2.60283,5.543415 4.3762,11.63469 5.01118,17.761312 0,0 0.29174,3.452115 0.29174,3.452115 0,0 0,6.250332 0,6.250332 -0.0286,2.321047 -0.71505,6.397607 -1.20703,8.718654 -1.82484,8.512469 -5.52603,16.259111 -10.84041,23.02785 -4.261802,5.419703 -9.501813,9.949864 -15.359643,13.419654 -5.852103,3.45801 -12.310595,5.86742 -18.963578,7.01616 -1.893503,0.32401 -4.982584,0.77761 -6.853207,0.7835 0,0 -6.092373,0.0295 -6.092373,0.0295 0,0 -1.876337,-0.18262 -1.876337,-0.18262 -4.673679,-0.3535 -9.255829,-1.39031 -13.700687,-2.91608 C 21.079812,103.73688 8.1113524,90.582321 2.5967544,73.510254 1.326795,69.58686 0.4572736,65.292334 0.1369234,61.174537 c 0,0 -0.1430134,-1.649475 -0.1430134,-1.649475 0,0 0,-6.250332 0,-6.250332 0,0 0.2917474,-3.452115 0.2917474,-3.452115 C 0.92063688,43.719557 2.6825624,37.763774 5.2167612,32.226251 11.852585,17.728544 24.660868,7.1719019 39.35121,2.4591161 42.205757,1.5401229 45.941269,0.74484046 48.915948,0.36192686 Z m 0.63498,0.96612062 c 0,0 -3.18634,0.36524086 -3.18634,0.36524086 C 46.421794,1.7286343 42.686283,2.5298079 39.831734,3.4429102 25.141394,8.1556955 13.008133,18.140912 6.2521781,32.550255 3.6493335,38.09956 1.8759667,44.190836 1.2409869,50.317457 c 0,0 -0.29174736,3.452116 -0.29174736,3.452116 0,0 0,5.266538 0,5.266538 0.028602,2.321047 0.70934686,6.397607 1.20703346,8.712763 2.2195687,10.362237 7.6083156,20.45349 15.045015,27.793654 5.869272,5.790832 13.346013,10.297432 21.034416,12.942482 4.387652,1.51399 8.929759,2.52135 13.546233,2.86891 0,0 1.630354,0.1355 1.630354,0.1355 0,0 5.383022,0.0118 5.383022,0.0118 0,0 3.500972,-0.30044 3.500972,-0.30044 7.05342,-0.77761 13.935235,-2.96317 20.239261,-6.32103 6.42417,-3.42266 12.24195,-8.164897 16.824107,-13.938059 3.981487,-5.019117 7.190707,-10.804062 9.255817,-16.942465 1.44158,-4.288635 2.42551,-8.789346 2.77447,-13.319511 0,0 0.14873,-1.643584 0.14873,-1.643584 0,0 0,-5.266538 0,-5.266538 -0.006,-3.54048 -1.20704,-9.731903 -2.23673,-13.154563 C 105.10307,26.671055 96.230513,15.360369 83.811229,8.3265345 79.595191,5.9347957 75.098853,4.0143354 70.425164,2.8007931 67.193072,1.9642736 62.08463,0.98047964 58.795313,0.98637064 Z M 56.718761,32.391198 c 0,0 0,3.946958 0,3.946958 0,0.41826 0.02861,0.918994 -0.251705,1.260671 -0.360393,0.447714 -0.995372,0.382913 -1.498779,0.382913 0,0 -8.283339,0 -8.283339,0 -1.475898,-0.01178 -1.59603,-0.382913 -1.59603,-1.808531 0,0 0,-27.9644945 0,-27.9644945 0,-0.453605 -0.04577,-1.0603765 0.257425,-1.4256174 0.360394,-0.4418237 0.989652,-0.3829138 1.49306,-0.3829138 0,0 10.039543,0 10.039543,0 5.291502,0 9.587622,-0.1354926 14.026759,3.4580075 1.126945,0.9131032 2.351147,2.1914462 3.111972,3.4521162 3.529574,5.849745 1.327164,12.683285 -4.073016,16.329803 -4.381934,2.963164 -8.260464,2.751088 -13.22589,2.751088 z m -0.955329,4.600857 c 0,0 0,-4.4418 0,-4.4418 0.01144,-0.394696 -0.0057,-0.90132 0.371837,-1.142851 0.286028,-0.176729 1.435853,-0.0059 1.859175,0 0,0 2.231005,0 2.231005,0 4.667962,-0.01178 9.696317,-1.932242 12.510814,-5.926328 C 77.01523,19.413364 73.863214,12.090874 67.713635,9.0864717 64.498701,7.5135785 61.621258,7.3839773 58.154619,7.3898683 c 0,0 -12.110381,0 -12.110381,0 0,0 0,29.6021867 0,29.6021867 z m 0.800875,22.36806 c 0,0 -9.564739,0 -9.564739,0 -1.538825,0 -1.750484,-0.212075 -1.750484,-1.808532 0,0 0,-10.032342 0,-10.032342 0,-1.590566 0.211659,-1.802641 1.750484,-1.808532 0,0 27.092465,0 27.092465,0 0.440481,0 1.023978,-0.04713 1.384366,0.265094 0.42905,0.371132 0.366115,1.025031 0.366115,1.543438 0,0 0,9.708338 0,9.708338 0,0.335786 0.01716,0.83652 -0.09724,1.148742 -0.366115,1.013249 -9.845049,4.471255 -11.217972,5.260647 0,0 9.564731,0 9.564731,0 1.538825,0.0059 1.750481,0.217966 1.750481,1.814423 0,0 0,11.675926 0,11.675926 -0.0062,2.209119 -0.697902,5.290102 -1.378639,7.399074 -2.488437,7.699514 -8.329109,14.780469 -15.514103,18.209029 -4.605034,2.19733 -9.129979,3.0692 -14.181214,3.01029 -0.932448,-0.0118 -3.129133,0.0294 -2.814504,-1.47864 0.194499,-0.90721 2.328259,-1.37849 3.134854,-1.71427 2.87171,-1.18409 5.571804,-2.76877 7.96871,-4.801151 4.662236,-3.958743 7.957263,-9.661214 9.416,-15.69358 0,0 0.778001,-4.765804 0.778001,-4.765804 0,0 -16.566681,0 -16.566681,0 -0.434761,-0.01178 -0.875242,-0.0059 -1.184151,-0.382914 -0.297468,-0.365241 -0.251703,-0.972012 -0.251703,-1.425618 0,0 0,-9.873286 0,-9.873286 0.0057,-2.150208 1.006814,-2.067735 2.705814,-2.845344 z M 74.887186,46.700394 c 0,0 -28.682773,0 -28.682773,0 0,0 0,11.675927 0,11.675927 0,0 15.617069,0.164947 15.617069,0.164947 0,0 -3.832759,1.508092 -3.832759,1.508092 0,0 -8.277621,3.204694 -8.277621,3.204694 0,0 -2.076555,0.877757 -2.076555,0.877757 0,0 -1.269959,0.72459 -1.269959,0.72459 0,0 -0.160175,1.248889 -0.160175,1.248889 0,0 0,10.19729 0,10.19729 0,0 18.008249,0 18.008249,0 0,8.960184 -4.959705,18.267936 -11.95592,23.452 -1.847734,1.3726 -3.798437,2.53312 -5.892154,3.45211 0,0 -3.506689,1.39028 -3.506689,1.39028 0,0 2.551359,0.15905 2.551359,0.15905 2.700094,0.0177 5.84639,-0.4536 8.443514,-1.21943 9.581901,-2.82178 17.276027,-10.762824 20.010442,-20.653783 0.50341,-1.820314 1.018256,-4.365218 1.023972,-6.250332 0,0 0,-12.005822 0,-12.005822 0,0 -15.92025,0.04713 -15.92025,0.04713 1.435852,-0.229748 3.838481,-1.584674 5.24001,-2.173773 0,0 10.199721,-3.988194 10.51435,-4.50071 0.200224,-0.318113 0.16589,-0.895429 0.16589,-1.266561 z M 60.934805,5.805194"
      />
</svg>
