<?xml version="1.0" encoding="UTF-8" standalone="no"?>
<!-- Created with Inkscape (http://www.inkscape.org/) -->

<svg
   version="1.1"
   id="svg1"
   width="180"
   height="53.333332"
   viewBox="0 0 180 53.333332"
   sodipodi:docname="GetItOnGooglePlay_Badge_Print_color_Spanish.eps"
   xmlns:inkscape="http://www.inkscape.org/namespaces/inkscape"
   xmlns:sodipodi="http://sodipodi.sourceforge.net/DTD/sodipodi-0.dtd"
   xmlns="http://www.w3.org/2000/svg"
   xmlns:svg="http://www.w3.org/2000/svg">
  <defs
     id="defs1" />
  <sodipodi:namedview
     id="namedview1"
     pagecolor="#ffffff"
     bordercolor="#000000"
     borderopacity="0.25"
     inkscape:showpageshadow="2"
     inkscape:pageopacity="0.0"
     inkscape:pagecheckerboard="0"
     inkscape:deskcolor="#d1d1d1">
    <inkscape:page
       x="0"
       y="0"
       inkscape:label="1"
       id="page1"
       width="180"
       height="53.333332"
       margin="0"
       bleed="0" />
  </sodipodi:namedview>
  <g
     id="g1"
     inkscape:groupmode="layer"
     inkscape:label="1">
    <g
       id="group-R5">
      <path
         id="path2"
         d="M 1300,0.00390625 H 50 C 22.5,0.00390625 0,22.5039 0,50.0039 V 350.004 c 0,27.5 22.5,50 50,50 h 1250 c 27.5,0 50,-22.5 50,-50 V 50.0039 c 0,-27.5 -22.5,-49.99999375 -50,-49.99999375"
         style="fill:#100f0d;fill-opacity:1;fill-rule:nonzero;stroke:none"
         transform="matrix(0.13333333,0,0,-0.13333333,0,53.333333)" />
      <path
         id="path3"
         d="M 1300,400 H 50 C 22.5,400 0,377.5 0,350 V 50 C 0,22.5 22.5,0 50,0 h 1250 c 27.5,0 50,22.5 50,50 v 300 c 0,27.5 -22.5,50 -50,50 z m 0,-7.996 c 23.16,0 42,-18.844 42,-42.004 V 50 C 1342,26.8398 1323.16,7.99609 1300,7.99609 H 50 C 26.8398,7.99609 8,26.8398 8,50 v 300 c 0,23.16 18.8398,42.004 42,42.004 h 1250"
         style="fill:#a2a2a1;fill-opacity:1;fill-rule:nonzero;stroke:none"
         transform="matrix(0.13333333,0,0,-0.13333333,0,53.333333)" />
      <path
         id="path4"
         d="m 1069.36,100 h 18.66 v 125.016 h -18.66 z m 168.07,79.98 -21.39,-54.199 h -0.64 l -22.2,54.199 h -20.1 l 33.29,-75.75 -18.98,-42.1402 h 19.46 L 1258.18,179.98 Z M 1131.6,114.199 c -6.11,0 -14.63,3.059 -14.63,10.617 0,9.649 10.61,13.348 19.78,13.348 8.2,0 12.06,-1.769 17.05,-4.18 -1.45,-11.582 -11.42,-19.785 -22.2,-19.785 z m 2.26,68.516 c -13.51,0 -27.51,-5.949 -33.3,-19.141 l 16.57,-6.914 c 3.54,6.914 10.13,9.168 17.05,9.168 9.65,0 19.46,-5.789 19.62,-16.082 v -1.289 c -3.38,1.93 -10.62,4.824 -19.46,4.824 -17.85,0 -36.03,-9.808 -36.03,-28.144 0,-16.727 14.64,-27.5003 31.04,-27.5003 12.55,0 19.46,5.6293 23.81,12.2223 h 0.64 v -9.652 h 18.01 v 47.93 c 0,22.195 -16.56,34.578 -37.95,34.578 z m -115.32,-17.953 h -26.536 v 42.851 h 26.536 c 13.95,0 21.87,-11.55 21.87,-21.425 0,-9.688 -7.92,-21.426 -21.87,-21.426 z m -0.48,60.254 H 973.348 V 100 h 18.656 v 47.363 h 26.056 c 20.68,0 41.01,14.973 41.01,38.825 0,23.851 -20.33,38.828 -41.01,38.828 z M 774.246,114.176 c -12.887,0 -23.68,10.797 -23.68,25.617 0,14.98 10.793,25.937 23.68,25.937 12.731,0 22.719,-10.957 22.719,-25.937 0,-14.82 -9.988,-25.617 -22.719,-25.617 z m 21.43,58.804 h -0.645 c -4.191,4.993 -12.246,9.504 -22.394,9.504 -21.266,0 -40.758,-18.687 -40.758,-42.691 0,-23.844 19.492,-42.3711 40.758,-42.3711 10.148,0 18.203,4.5121 22.394,9.6681 h 0.645 v -6.125 c 0,-16.2697 -8.699,-24.9689 -22.719,-24.9689 -11.437,0 -18.527,8.2148 -21.426,15.1445 l -16.269,-6.7695 c 4.672,-11.2773 17.074,-25.1328 37.695,-25.1328 21.91,0 40.438,12.8906 40.438,44.3047 v 76.363 H 795.676 Z M 826.285,100 h 18.688 v 125.016 h -18.688 z m 46.238,41.242 c -0.484,16.434 12.727,24.809 22.231,24.809 7.41,0 13.695,-3.703 15.789,-9.02 z m 57.997,14.18 c -3.543,9.504 -14.34,27.062 -36.411,27.062 -21.91,0 -40.113,-17.238 -40.113,-42.531 0,-23.844 18.043,-42.5311 42.207,-42.5311 19.492,0 30.774,11.9221 35.442,18.8481 l -14.497,9.668 c -4.835,-7.09 -11.437,-11.762 -20.945,-11.762 -9.504,0 -16.269,4.351 -20.621,12.89 l 56.871,23.52 z m -453.082,14.012 v -18.043 h 43.175 c -1.289,-10.149 -4.672,-17.559 -9.828,-22.715 -6.281,-6.281 -16.109,-13.211 -33.347,-13.211 -26.583,0 -47.368,21.43 -47.368,48.012 0,26.582 20.785,48.007 47.368,48.007 14.335,0 24.808,-5.64 32.542,-12.886 l 12.727,12.726 c -10.793,10.309 -25.133,18.203 -45.269,18.203 -36.411,0 -67.024,-29.644 -67.024,-66.05 0,-36.411 30.613,-66.0551 67.024,-66.0551 19.652,0 34.476,6.4451 46.074,18.5271 11.922,11.922 15.629,28.676 15.629,42.207 0,4.192 -0.325,8.059 -0.969,11.278 z m 110.785,-55.258 c -12.887,0 -24.004,10.633 -24.004,25.777 0,15.305 11.117,25.777 24.004,25.777 12.89,0 24.004,-10.472 24.004,-25.777 0,-15.144 -11.114,-25.777 -24.004,-25.777 z m 0,68.308 c -23.52,0 -42.692,-17.882 -42.692,-42.531 0,-24.488 19.172,-42.5311 42.692,-42.5311 23.523,0 42.695,18.0431 42.695,42.5311 0,24.649 -19.172,42.531 -42.695,42.531 z m 93.136,-68.308 c -12.89,0 -24.007,10.633 -24.007,25.777 0,15.305 11.117,25.777 24.007,25.777 12.887,0 24.004,-10.472 24.004,-25.777 0,-15.144 -11.117,-25.777 -24.004,-25.777 z m 0,68.308 c -23.523,0 -42.695,-17.882 -42.695,-42.531 0,-24.488 19.172,-42.5311 42.695,-42.5311 23.52,0 42.692,18.0431 42.692,42.5311 0,24.649 -19.172,42.531 -42.692,42.531"
         style="fill:#ffffff;fill-opacity:1;fill-rule:nonzero;stroke:none"
         transform="matrix(0.13333333,0,0,-0.13333333,0,53.333333)" />
      <path
         id="path5"
         d="M 207.172,205.762 100.707,92.7617 c 0.008,-0.0234 0.012,-0.0469 0.016,-0.0703 3.265,-12.2695 14.472,-21.3047 27.773,-21.3047 5.317,0 10.309,1.4375 14.59,3.961 l 0.34,0.2031 119.84,69.1442 -56.094,61.067"
         style="fill:#eb3131;fill-opacity:1;fill-rule:nonzero;stroke:none"
         transform="matrix(0.13333333,0,0,-0.13333333,0,53.333333)" />
      <path
         id="path6"
         d="m 314.883,225.004 -0.106,0.066 -51.734,29.996 -58.289,-51.871 58.492,-58.484 51.465,29.695 c 9.023,4.871 15.148,14.383 15.148,25.348 0,10.898 -6.043,20.355 -14.976,25.25"
         style="fill:#f6b60b;fill-opacity:1;fill-rule:nonzero;stroke:none"
         transform="matrix(0.13333333,0,0,-0.13333333,0,53.333333)" />
      <path
         id="path7"
         d="m 100.699,307.23 c -0.636,-2.363 -0.9724,-4.839 -0.9724,-7.402 V 100.152 c 0,-2.5622 0.3324,-5.0426 0.9804,-7.3903 L 210.836,202.867 100.699,307.23"
         style="fill:#5778c5;fill-opacity:1;fill-rule:nonzero;stroke:none"
         transform="matrix(0.13333333,0,0,-0.13333333,0,53.333333)" />
      <path
         id="path8"
         d="m 207.957,199.992 55.102,55.09 -119.704,69.402 c -4.347,2.606 -9.425,4.114 -14.859,4.114 -13.301,0 -24.523,-9.055 -27.789,-21.34 -0.004,-0.008 -0.004,-0.02 -0.008,-0.028 L 207.957,199.992"
         style="fill:#3bad49;fill-opacity:1;fill-rule:nonzero;stroke:none"
         transform="matrix(0.13333333,0,0,-0.13333333,0,53.333333)" />
      <text
         id="text8"
         xml:space="preserve"
         transform="matrix(1.3333333,0,0,1.3333333,54.772933,17.511467)"><tspan
           id="tspan8"
           style="font-variant:normal;font-weight:500;font-size:8.7px;font-family:GoogleSans-Medium;writing-mode:lr-tb;fill:#ffffff;fill-opacity:1;fill-rule:nonzero;stroke:none"
           x="0"
           dx="0 0.16471276 0.046063188 0.083435088 0.12396891 0.11179239 0.077770948 -0.11065095 0.11082147 0 0 0.13688318"
           y="0">DESCARGAR EN</tspan></text>
    </g>
  </g>
</svg>
